<?xml version="1.0" encoding="utf-8"?>
<!-- Generator: Adobe Illustrator 22.1.0, SVG Export Plug-In . SVG Version: 6.00 Build 0)  -->
<svg version="1.1" id="Layer_1" xmlns="http://www.w3.org/2000/svg" xmlns:xlink="http://www.w3.org/1999/xlink" x="0px" y="0px"
	 viewBox="0 0 100 100" style="enable-background:new 0 0 100 100;" xml:space="preserve">
<style type="text/css">
	.st0{fill:#FFFFFF;}
</style>
<title>ikonlar</title>
<g>
	<path class="st0" d="M84.8,71.7H16.1c-2.8,0-5-2.2-5-5V25.5c0-2.8,2.2-5,5-5h68.7c2.8,0,5,2.2,5,5v41.2
		C89.8,69.5,87.6,71.7,84.8,71.7z M16.1,24.2c-0.7,0-1.3,0.6-1.3,1.3v41.2c0,0.7,0.6,1.3,1.3,1.3h68.7c0.7,0,1.3-0.6,1.3-1.3V25.5
		c0-0.7-0.6-1.3-1.3-1.3H16.1z"/>
	<path class="st0" d="M68.2,80.1h-36c-1,0-1.9-0.8-1.9-1.9c0-1,0.8-1.9,1.9-1.9h36c1,0,1.9,0.8,1.9,1.9
		C70.1,79.3,69.2,80.1,68.2,80.1z"/>
	<path class="st0" d="M56,80.1H45c-1,0-1.9-0.8-1.9-1.9v-8.4c0-1,0.8-1.9,1.9-1.9h11c1,0,1.9,0.8,1.9,1.9v8.4
		C57.9,79.3,57,80.1,56,80.1z M46.8,76.4h7.3v-4.7h-7.3V76.4z"/>
	<g>
		<path class="st0" d="M50.5,67.1c-0.5,0-1-0.2-1.3-0.5c-0.4-0.4-0.5-0.8-0.5-1.3c0-0.2,0-0.5,0.1-0.7c0.1-0.2,0.2-0.4,0.4-0.6
			c0.7-0.7,1.9-0.7,2.6,0c0.4,0.4,0.5,0.8,0.5,1.3c0,0.5-0.2,1-0.5,1.3C51.4,66.9,51,67.1,50.5,67.1z"/>
	</g>
</g>
</svg>
