<svg xmlns="http://www.w3.org/2000/svg" viewBox="0 0 99.5 66">
    <defs>
        <style>
            .cls-1 {
                fill: #D22731;
            }
        </style>
    </defs>
    <title>Asset 1</title>
    <g id="Layer_2" data-name="Layer 2">
        <g id="Layer_1-2" data-name="Layer 1">
            <path class="cls-1" d="M34.68,43.52a11.55,11.55,0,0,0,1.51,4.71,10.69,10.69,0,0,0,4.51,4.19,15.25,15.25,0,0,0,6.92,1.46,21.08,21.08,0,0,0,11.07-3.06c.2-.11.37-.26.56-.38a17.86,17.86,0,0,1-2.38-7.86,18.05,18.05,0,0,1-4.26,6.32,6.74,6.74,0,0,1-4.51,1.91,4.29,4.29,0,0,1-3.44-1.54,7.28,7.28,0,0,1-1.28-4.7,30.94,30.94,0,0,1,2.17-11.1c.35-.92.72-1.78,1.11-2.59-2.42,2.36-6.25,6.3-12,12.64m14.7-24.36L54.53,0,39.86.56l-1,3.33h1.46a4.07,4.07,0,0,1,2.43.55A1.81,1.81,0,0,1,43.51,6a5,5,0,0,1-.18,1.31L37.23,30.1c3.68-4.13,7.88-8.25,12.15-10.94M10.92,36.84q1.35-8,4.67-12.52,2.27-3.13,4.88-3.14a2.74,2.74,0,0,1,2.18,1,4.39,4.39,0,0,1,.86,2.87,10.77,10.77,0,0,1-3.78,8Q17,35.68,10.92,36.84m78.4,11.49a1.22,1.22,0,0,1-.23-.81,17.3,17.3,0,0,1,.7-3.29l7-25.28-9.06.68-1.92,5.12A8.87,8.87,0,0,0,83,20.05a8.22,8.22,0,0,0-5.12-1.49A15.74,15.74,0,0,0,69.64,21,14.91,14.91,0,0,1,72,29.28c.07-.13.12-.26.19-.39q3.44-6,7.74-6.05a3.42,3.42,0,0,1,2.91,1.4c.7.93,1,2.54,1,4.82A31.58,31.58,0,0,1,81.9,39.93Q80,45,77.53,47.22a7.21,7.21,0,0,1-4.61,2.17l-.3,0v0a3,3,0,0,1-2-.7,3.65,3.65,0,0,1-.82-.8,5,5,0,0,1-.63-1.41.19.19,0,0,1,0-.08,6.55,6.55,0,0,1-.19-.67c-.47-2-.52-5,.42-9.59,1.38-6.74.37-11.11-1.54-13.89l0,0c-.25-.35-.47-.72-.75-1a10.73,10.73,0,0,0-1.46-1.34l-.07-.05a9.4,9.4,0,0,0-1.58-.94l-.16-.07A10.44,10.44,0,0,0,60,18s0,0,0,0-.11,0-.17,0-.35-.05-.55-.05-.33.05-.5.05a11.18,11.18,0,0,0-2.06.22l-.52.1a22,22,0,0,0-7.38,3.59A105.23,105.23,0,0,0,36.19,34l0,.06c-3.29,3.86-6.05,7.48-7.86,9.6l0,0h0a25.46,25.46,0,0,1-6.07,4.89l-.1,0a11.33,11.33,0,0,1-5,1.21,6.29,6.29,0,0,1-4.91-2A8.22,8.22,0,0,1,10.36,42c0-.59.05-1.33.14-2.23q9.22-1.62,13.76-3.69a16.14,16.14,0,0,0,6.54-4.88,9.61,9.61,0,0,0,2-5.6,7.09,7.09,0,0,0-2.51-5.56q-2.51-2.19-7.07-2.19a23.38,23.38,0,0,0-11.61,3,22.4,22.4,0,0,0-8.51,8.22A21,21,0,0,0,0,40q0,6.39,3.73,10.13T14,53.89a19.65,19.65,0,0,0,2.56-.18l-.12.09.88-.21A18.82,18.82,0,0,0,22.54,52c.19-.08.37-.21.56-.31a12.58,12.58,0,0,0,1.28-.72l.31-.19c.49-.32,1-.68,1.49-1.07l.63-.5c.15-.12.3-.26.45-.39a36.37,36.37,0,0,0,2.81-2.68c.18-.19.34-.33.53-.53,1.27-1.5,2.44-2.85,3.58-4.15.11-.13.19-.25.31-.38,4.23-4.89,11-13,16.59-16.28l.25-.2a12.6,12.6,0,0,1,1.7-1A5.08,5.08,0,0,1,55,23.12a4.63,4.63,0,0,1,.55.06v0a3.22,3.22,0,0,1,2.62,1.4c.06.07.13.12.18.19a7.52,7.52,0,0,1,1.19,4.12,27.23,27.23,0,0,1-.44,6.93c-1,6.63.1,10.81,1.9,13.46l.07,0a11.46,11.46,0,0,0,.87,1.2,10.08,10.08,0,0,0,1.5,1.36l.33.26a10.64,10.64,0,0,0,1.3.75c.31.14.6.28.88.38a8.64,8.64,0,0,0,1.31.41c.22.06.41.1.58.13a11.63,11.63,0,0,0,2.07.19,11,11,0,0,0,5.34-1.36,17.63,17.63,0,0,0,5.2-4.75,7.67,7.67,0,0,0,1.63,4.58A5,5,0,0,0,86,53.88q7.35,0,13.55-12.05l-2.67-1.45Q92.65,48.61,90,48.62a.83.83,0,0,1-.69-.29" />
        </g>
    </g>
</svg>