<svg id="Layer_1" data-name="Layer 1" xmlns="http://www.w3.org/2000/svg" viewBox="0 0 100 100"><defs><style>.cls-1{fill:#fff;}</style></defs><title>ikonlar-teneffus</title><path class="cls-1" d="M36.18,76.7H24V41.32H36.18Zm-8.35-3.8h4.55V45.11H27.83Z"/><path class="cls-1" d="M77.74,76.7H65.58V41.32H77.74Zm-8.36-3.8h4.55V45.11H69.38Z"/><path class="cls-1" d="M57,76.7H44.82V41.32H57Zm-8.35-3.8h4.55V45.11H48.62Z"/><polygon class="cls-1" points="84.42 81.48 80.62 81.48 80.62 76.7 21.18 76.7 21.18 81.48 17.38 81.48 17.38 72.9 84.42 72.9 84.42 81.48"/><polygon class="cls-1" points="81.08 45.12 20.72 45.12 20.72 36.53 24.52 36.53 24.52 41.31 77.28 41.31 77.28 36.53 81.08 36.53 81.08 45.12"/><rect class="cls-1" x="14.37" y="79.58" width="73.25" height="3.8"/><path class="cls-1" d="M87.76,38.43H14V28L50.9,12.79,87.76,28Zm-69.93-3.8H84V30.52L50.9,16.9,17.83,30.52Z"/><path class="cls-1" d="M71.68,31.75H30.11V28.31L50.88,20,71.68,28ZM41.28,28H61L50.91,24.11Z"/></svg>