<svg id="Layer_1" data-name="Layer 1" xmlns="http://www.w3.org/2000/svg" viewBox="0 0 100 100"><defs><style>.cls-1{fill:#fff;}</style></defs><title>ikonlar-teneffus</title><path class="cls-1" d="M69.22,85.11H30.1a6.92,6.92,0,0,1-6.91-6.92V21.8a6.94,6.94,0,0,1,6.94-6.94H72a6.86,6.86,0,0,1,6.86,6.85V68.24A6.84,6.84,0,0,1,72,75.08H30.1a3.12,3.12,0,0,0,0,6.23H69.22A3.28,3.28,0,0,0,72.5,78h3.81A7.1,7.1,0,0,1,69.22,85.11ZM30.13,18.66A3.15,3.15,0,0,0,27,21.8V72a6.89,6.89,0,0,1,3.11-.74H72a3,3,0,0,0,3-3V21.71A3.06,3.06,0,0,0,72,18.66Z"/><rect class="cls-1" x="33.16" y="27.05" width="35.68" height="3.8"/></svg>