<svg id="Layer_1" data-name="Layer 1" xmlns="http://www.w3.org/2000/svg" viewBox="0 0 100 100"><defs><style>.cls-1{fill:#fff;}</style></defs><title>ikonlar-teneffus</title><rect class="cls-1" x="27.46" y="53.74" width="3.8" height="9.98"/><rect class="cls-1" x="24.36" y="56.83" width="9.98" height="3.8"/><path class="cls-1" d="M29.35,69.38A10.65,10.65,0,1,1,40,58.73,10.66,10.66,0,0,1,29.35,69.38Zm0-17.5a6.85,6.85,0,1,0,6.85,6.85A6.86,6.86,0,0,0,29.35,51.88Z"/><path class="cls-1" d="M72.64,69.38A10.65,10.65,0,1,1,83.29,58.73,10.66,10.66,0,0,1,72.64,69.38Zm0-17.5a6.85,6.85,0,1,0,6.85,6.85A6.86,6.86,0,0,0,72.64,51.88Z"/><rect class="cls-1" x="42.99" y="53.14" width="5.13" height="3.8"/><rect class="cls-1" x="53.98" y="53.14" width="5.13" height="3.8"/><path class="cls-1" d="M29.36,87.36c-2.9,0-5.7-1.47-8.33-4.36C15,76.31,11.45,64,12.11,57,12.94,48.27,20.81,41.4,30,41.4H72.64A17.35,17.35,0,0,1,90,58.73c0,6.86-5,19.45-11.37,25.39-2.47,2.29-4.93,3.36-7.33,3.18-5.77-.44-9.62-9.91-12.42-16.82-.68-1.67-1.27-3.11-1.74-4.06h0a1.56,1.56,0,0,0-1.39-.83h0l-9.44,0a1.56,1.56,0,0,0-1.39.83c-.43.86-1,2-1.55,3.4C40.05,77.23,35.57,87.36,29.36,87.36ZM30,45.2c-7.27,0-13.48,5.36-14.13,12.2-.57,6,2.78,17.35,8,23,1.29,1.42,3.29,3.11,5.51,3.11,3.74,0,8.3-10.3,10.49-15.25.62-1.4,1.16-2.61,1.62-3.55a5.32,5.32,0,0,1,4.79-2.94l9.45,0h0a5.39,5.39,0,0,1,4.8,2.94c.53,1.08,1.14,2.58,1.85,4.32,2,5,5.76,14.2,9.19,14.46,1.63.13,3.31-1.12,4.46-2.18,5.47-5.07,10.15-16.67,10.15-22.6A13.55,13.55,0,0,0,72.64,45.2Z"/><path class="cls-1" d="M59.86,45.2H42.06v-7a3.48,3.48,0,0,1,3.48-3.48H56.38a3.48,3.48,0,0,1,3.48,3.48Zm-14-3.8h10.2V38.52H45.86Z"/><path class="cls-1" d="M52.86,36.62h-3.8v-15a8.09,8.09,0,0,0-16.18,0A11.18,11.18,0,0,1,21.71,32.82H16.57V29h5.14a7.38,7.38,0,0,0,7.37-7.37,11.89,11.89,0,0,1,23.78,0Z"/></svg>