<?xml version="1.0" encoding="utf-8"?>
<!-- Generator: Adobe Illustrator 22.1.0, SVG Export Plug-In . SVG Version: 6.00 Build 0)  -->
<svg version="1.1" id="Layer_1" xmlns="http://www.w3.org/2000/svg" xmlns:xlink="http://www.w3.org/1999/xlink" x="0px" y="0px"
	 viewBox="0 0 100 100" style="enable-background:new 0 0 100 100;" xml:space="preserve">
<style type="text/css">
	.st0{fill:#FFFFFF;}
</style>
<title>ikonlar</title>
<g>
	<g>
		<path class="st0" d="M80.4,70.9c-1,0-1.9-0.8-1.9-1.9s0.8-1.9,1.9-1.9c0.8,0,1.4-0.6,1.4-1.4V26.1c0-0.6-0.5-1-1-1H19
			c-0.6,0-1,0.5-1,1v39.7c0,0.8,0.6,1.4,1.4,1.4c1,0,1.9,0.8,1.9,1.9s-0.8,1.9-1.9,1.9c-2.8,0-5.2-2.3-5.2-5.2V26.1
			c0-2.6,2.1-4.8,4.8-4.8h61.8c2.6,0,4.8,2.1,4.8,4.8v39.7C85.6,68.6,83.3,70.9,80.4,70.9z"/>
	</g>
	<path class="st0" d="M88.9,79H10.8C9.4,79,8,78.5,7,77.4l-3-3c-0.4-0.4-0.5-0.8-0.5-1.3V69c0-1,0.8-1.9,1.9-1.9h33
		c0.3,0,0.6,0.1,0.9,0.2l3.3,1.7H57l3.3-1.7c0.3-0.1,0.6-0.2,0.9-0.2h33.3c1,0,1.9,0.8,1.9,1.9v4.1c0,0.5-0.2,1-0.5,1.3l-3,3
		C91.7,78.5,90.4,79,88.9,79z M7.2,72.3l2.5,2.5c0.3,0.3,0.8,0.5,1.2,0.5h78.1c0.5,0,0.9-0.2,1.2-0.5l2.5-2.5v-1.4h-31l-3.3,1.7
		c-0.3,0.1-0.6,0.2-0.9,0.2H42c-0.3,0-0.6-0.1-0.9-0.2l-3.3-1.7H7.2V72.3z"/>
</g>
</svg>
